<mxfile modified="2024-12-15T05:25:19.493Z" host="app.diagrams.net" agent="Mozilla/5.0 (Macintosh; Intel Mac OS X 10_15_7) AppleWebKit/537.36 (KHTML, like Gecko) Chrome/131.0.0.0 Safari/537.36" etag="rDTvu1F58hQ45YfExy52" version="24.6.4" type="github">
  <diagram id="Ht1M8jgEwFfnCIfOTk4-" name="Page-1">
    <mxGraphModel dx="1434" dy="1569" grid="1" gridSize="10" guides="1" tooltips="1" connect="1" arrows="1" fold="1" page="1" pageScale="1" pageWidth="1169" pageHeight="827" math="0" shadow="0">
      <root>
        <mxCell id="0" />
        <mxCell id="1" parent="0" />
        <mxCell id="m5rwKxlcL4WKNT8dF4GD-1" value="" style="shape=image;verticalLabelPosition=bottom;labelBackgroundColor=default;verticalAlign=top;aspect=fixed;imageAspect=0;image=https://upload.wikimedia.org/wikipedia/commons/thumb/9/9c/IntelliJ_IDEA_Icon.svg/800px-IntelliJ_IDEA_Icon.svg.png;" vertex="1" parent="1">
          <mxGeometry x="35" y="-750" width="100" height="100" as="geometry" />
        </mxCell>
        <mxCell id="m5rwKxlcL4WKNT8dF4GD-2" value="Local Develop" style="text;html=1;align=center;verticalAlign=middle;whiteSpace=wrap;rounded=0;" vertex="1" parent="1">
          <mxGeometry x="30" y="-640" width="110" height="30" as="geometry" />
        </mxCell>
        <mxCell id="m5rwKxlcL4WKNT8dF4GD-3" value="" style="endArrow=classic;html=1;rounded=0;" edge="1" parent="1">
          <mxGeometry width="50" height="50" relative="1" as="geometry">
            <mxPoint x="140" y="-690" as="sourcePoint" />
            <mxPoint x="220" y="-690" as="targetPoint" />
          </mxGeometry>
        </mxCell>
        <mxCell id="m5rwKxlcL4WKNT8dF4GD-4" value="push" style="text;html=1;align=center;verticalAlign=middle;whiteSpace=wrap;rounded=0;" vertex="1" parent="1">
          <mxGeometry x="145" y="-730" width="60" height="30" as="geometry" />
        </mxCell>
        <mxCell id="m5rwKxlcL4WKNT8dF4GD-5" value="" style="dashed=0;outlineConnect=0;html=1;align=center;labelPosition=center;verticalLabelPosition=bottom;verticalAlign=top;shape=mxgraph.weblogos.github" vertex="1" parent="1">
          <mxGeometry x="225" y="-730" width="75" height="75" as="geometry" />
        </mxCell>
        <mxCell id="m5rwKxlcL4WKNT8dF4GD-6" value="" style="endArrow=classic;html=1;rounded=0;" edge="1" parent="1">
          <mxGeometry width="50" height="50" relative="1" as="geometry">
            <mxPoint x="262" y="-650" as="sourcePoint" />
            <mxPoint x="262" y="-590" as="targetPoint" />
          </mxGeometry>
        </mxCell>
        <mxCell id="m5rwKxlcL4WKNT8dF4GD-7" value="Trigger Workflow" style="text;html=1;align=center;verticalAlign=middle;whiteSpace=wrap;rounded=0;" vertex="1" parent="1">
          <mxGeometry x="265" y="-640" width="110" height="30" as="geometry" />
        </mxCell>
        <mxCell id="m5rwKxlcL4WKNT8dF4GD-9" value="" style="shape=image;verticalLabelPosition=bottom;labelBackgroundColor=default;verticalAlign=top;aspect=fixed;imageAspect=0;image=https://duinaru.github.io/img/uploads/githubactions.png;" vertex="1" parent="1">
          <mxGeometry x="225" y="-580" width="80" height="80" as="geometry" />
        </mxCell>
        <mxCell id="m5rwKxlcL4WKNT8dF4GD-10" value="Github Actions&lt;br&gt;Test and Delopy" style="text;html=1;align=center;verticalAlign=middle;whiteSpace=wrap;rounded=0;" vertex="1" parent="1">
          <mxGeometry x="207.5" y="-480" width="110" height="30" as="geometry" />
        </mxCell>
        <mxCell id="m5rwKxlcL4WKNT8dF4GD-11" value="" style="endArrow=classic;html=1;rounded=0;" edge="1" parent="1">
          <mxGeometry width="50" height="50" relative="1" as="geometry">
            <mxPoint x="312.5" y="-520.5" as="sourcePoint" />
            <mxPoint x="415" y="-520.5" as="targetPoint" />
          </mxGeometry>
        </mxCell>
        <mxCell id="m5rwKxlcL4WKNT8dF4GD-12" value="Run deploy script" style="text;html=1;align=center;verticalAlign=middle;whiteSpace=wrap;rounded=0;" vertex="1" parent="1">
          <mxGeometry x="305" y="-560.5" width="110" height="30" as="geometry" />
        </mxCell>
        <mxCell id="m5rwKxlcL4WKNT8dF4GD-13" value="" style="rounded=0;whiteSpace=wrap;html=1;dashed=1;" vertex="1" parent="1">
          <mxGeometry x="666" y="-730" width="214" height="650" as="geometry" />
        </mxCell>
        <mxCell id="m5rwKxlcL4WKNT8dF4GD-14" value="" style="image;sketch=0;aspect=fixed;html=1;points=[];align=center;fontSize=12;image=img/lib/mscae/Docker.svg;" vertex="1" parent="1">
          <mxGeometry x="686" y="-710" width="97.56" height="80" as="geometry" />
        </mxCell>
        <mxCell id="m5rwKxlcL4WKNT8dF4GD-15" value="" style="shape=image;verticalLabelPosition=bottom;labelBackgroundColor=default;verticalAlign=top;aspect=fixed;imageAspect=0;image=https://miro.medium.com/v2/resize:fit:490/1*aRUnth2T7XPMwCpMHrjfyQ.png;" vertex="1" parent="1">
          <mxGeometry x="674.15" y="-620.98" width="168.7" height="80.22" as="geometry" />
        </mxCell>
        <mxCell id="m5rwKxlcL4WKNT8dF4GD-18" value="" style="outlineConnect=0;dashed=0;verticalLabelPosition=bottom;verticalAlign=top;align=center;html=1;shape=mxgraph.aws3.ec2;fillColor=#F58534;gradientColor=none;" vertex="1" parent="1">
          <mxGeometry x="666" y="-810" width="65" height="80" as="geometry" />
        </mxCell>
        <mxCell id="m5rwKxlcL4WKNT8dF4GD-19" value="&lt;b&gt;&lt;font style=&quot;font-size: 15px;&quot;&gt;AWS EC2&lt;/font&gt;&lt;/b&gt;" style="text;html=1;align=center;verticalAlign=middle;whiteSpace=wrap;rounded=0;" vertex="1" parent="1">
          <mxGeometry x="738.5" y="-780" width="85" height="30" as="geometry" />
        </mxCell>
        <mxCell id="m5rwKxlcL4WKNT8dF4GD-20" value="" style="shape=image;html=1;verticalAlign=top;verticalLabelPosition=bottom;labelBackgroundColor=#ffffff;imageAspect=0;aspect=fixed;image=https://cdn1.iconfinder.com/data/icons/unicons-line-vol-3/24/docker-128.png" vertex="1" parent="1">
          <mxGeometry x="425" y="-580" width="90" height="90" as="geometry" />
        </mxCell>
        <mxCell id="m5rwKxlcL4WKNT8dF4GD-21" value="dockerhub" style="text;html=1;align=center;verticalAlign=middle;whiteSpace=wrap;rounded=0;" vertex="1" parent="1">
          <mxGeometry x="415" y="-480" width="110" height="30" as="geometry" />
        </mxCell>
        <mxCell id="m5rwKxlcL4WKNT8dF4GD-22" value="" style="endArrow=classic;html=1;rounded=0;entryX=0;entryY=0.5;entryDx=0;entryDy=0;" edge="1" parent="1" target="m5rwKxlcL4WKNT8dF4GD-15">
          <mxGeometry width="50" height="50" relative="1" as="geometry">
            <mxPoint x="515" y="-535.5" as="sourcePoint" />
            <mxPoint x="617.5" y="-535.5" as="targetPoint" />
          </mxGeometry>
        </mxCell>
        <mxCell id="m5rwKxlcL4WKNT8dF4GD-27" value="&lt;b&gt;proxy&lt;/b&gt;" style="text;html=1;align=center;verticalAlign=middle;whiteSpace=wrap;rounded=0;" vertex="1" parent="1">
          <mxGeometry x="910" y="-530" width="60" height="30" as="geometry" />
        </mxCell>
        <mxCell id="m5rwKxlcL4WKNT8dF4GD-29" value="" style="shape=image;verticalLabelPosition=bottom;labelBackgroundColor=default;verticalAlign=top;aspect=fixed;imageAspect=0;image=https://nginxstore.com/wp-content/uploads/2024/06/nginx-svgrepo-com.svg;" vertex="1" parent="1">
          <mxGeometry x="720.56" y="-466.5" width="63" height="63" as="geometry" />
        </mxCell>
        <mxCell id="m5rwKxlcL4WKNT8dF4GD-30" value="" style="rounded=1;whiteSpace=wrap;html=1;fillColor=none;" vertex="1" parent="1">
          <mxGeometry x="680" y="-523.5" width="150" height="143.5" as="geometry" />
        </mxCell>
        <mxCell id="m5rwKxlcL4WKNT8dF4GD-31" value="" style="image;sketch=0;aspect=fixed;html=1;points=[];align=center;fontSize=12;image=img/lib/mscae/Docker.svg;" vertex="1" parent="1">
          <mxGeometry x="720.56" y="-510" width="52.44" height="43" as="geometry" />
        </mxCell>
        <mxCell id="m5rwKxlcL4WKNT8dF4GD-32" value="&lt;b&gt;&lt;font color=&quot;#a78835&quot;&gt;nginx&lt;/font&gt;&lt;/b&gt;" style="text;html=1;align=center;verticalAlign=middle;whiteSpace=wrap;rounded=0;" vertex="1" parent="1">
          <mxGeometry x="722.06" y="-413" width="60" height="30" as="geometry" />
        </mxCell>
        <mxCell id="m5rwKxlcL4WKNT8dF4GD-33" value="" style="endArrow=classic;html=1;rounded=0;entryX=0;entryY=0.5;entryDx=0;entryDy=0;exitX=1;exitY=0.5;exitDx=0;exitDy=0;" edge="1" parent="1" source="m5rwKxlcL4WKNT8dF4GD-20" target="m5rwKxlcL4WKNT8dF4GD-30">
          <mxGeometry width="50" height="50" relative="1" as="geometry">
            <mxPoint x="525" y="-525.5" as="sourcePoint" />
            <mxPoint x="680" y="-542" as="targetPoint" />
          </mxGeometry>
        </mxCell>
        <mxCell id="m5rwKxlcL4WKNT8dF4GD-34" value="" style="endArrow=classic;html=1;rounded=0;exitX=1;exitY=0.5;exitDx=0;exitDy=0;entryX=0;entryY=0.5;entryDx=0;entryDy=0;" edge="1" parent="1" source="m5rwKxlcL4WKNT8dF4GD-20" target="m5rwKxlcL4WKNT8dF4GD-35">
          <mxGeometry width="50" height="50" relative="1" as="geometry">
            <mxPoint x="500" y="-510" as="sourcePoint" />
            <mxPoint x="660" y="-310" as="targetPoint" />
          </mxGeometry>
        </mxCell>
        <mxCell id="m5rwKxlcL4WKNT8dF4GD-35" value="" style="rounded=1;whiteSpace=wrap;html=1;fillColor=none;" vertex="1" parent="1">
          <mxGeometry x="696" y="-360" width="130" height="120" as="geometry" />
        </mxCell>
        <mxCell id="m5rwKxlcL4WKNT8dF4GD-37" value="" style="shape=image;verticalLabelPosition=bottom;labelBackgroundColor=default;verticalAlign=top;aspect=fixed;imageAspect=0;image=https://velog.velcdn.com/images/mmoo/post/516073c0-0d77-4c19-8166-b614f8421cc0/image.png;" vertex="1" parent="1">
          <mxGeometry x="699.78" y="-310" width="126.22" height="63.74" as="geometry" />
        </mxCell>
        <mxCell id="m5rwKxlcL4WKNT8dF4GD-38" value="" style="image;sketch=0;aspect=fixed;html=1;points=[];align=center;fontSize=12;image=img/lib/mscae/Docker.svg;" vertex="1" parent="1">
          <mxGeometry x="732.28" y="-356.25" width="52.44" height="43" as="geometry" />
        </mxCell>
        <mxCell id="m5rwKxlcL4WKNT8dF4GD-41" value="" style="shape=image;verticalLabelPosition=bottom;labelBackgroundColor=default;verticalAlign=top;aspect=fixed;imageAspect=0;image=https://blog.kakaocdn.net/dn/mc3sg/btr01UyNEYk/7xYr5PSVczPFg4KUd8Flu1/img.png;" vertex="1" parent="1">
          <mxGeometry x="43.5" y="-383" width="96.5" height="96.5" as="geometry" />
        </mxCell>
        <mxCell id="m5rwKxlcL4WKNT8dF4GD-42" value="" style="endArrow=classic;html=1;rounded=0;" edge="1" parent="1">
          <mxGeometry width="50" height="50" relative="1" as="geometry">
            <mxPoint x="145" y="-329" as="sourcePoint" />
            <mxPoint x="225" y="-329" as="targetPoint" />
          </mxGeometry>
        </mxCell>
        <mxCell id="m5rwKxlcL4WKNT8dF4GD-43" value="push" style="text;html=1;align=center;verticalAlign=middle;whiteSpace=wrap;rounded=0;" vertex="1" parent="1">
          <mxGeometry x="150" y="-369" width="60" height="30" as="geometry" />
        </mxCell>
        <mxCell id="m5rwKxlcL4WKNT8dF4GD-44" value="" style="dashed=0;outlineConnect=0;html=1;align=center;labelPosition=center;verticalLabelPosition=bottom;verticalAlign=top;shape=mxgraph.weblogos.github" vertex="1" parent="1">
          <mxGeometry x="230" y="-369" width="75" height="75" as="geometry" />
        </mxCell>
        <mxCell id="m5rwKxlcL4WKNT8dF4GD-45" value="" style="endArrow=classic;html=1;rounded=0;" edge="1" parent="1">
          <mxGeometry width="50" height="50" relative="1" as="geometry">
            <mxPoint x="310" y="-330" as="sourcePoint" />
            <mxPoint x="380" y="-330" as="targetPoint" />
          </mxGeometry>
        </mxCell>
        <mxCell id="m5rwKxlcL4WKNT8dF4GD-46" value="Trigger Workflow" style="text;html=1;align=center;verticalAlign=middle;whiteSpace=wrap;rounded=0;" vertex="1" parent="1">
          <mxGeometry x="300" y="-324" width="110" height="30" as="geometry" />
        </mxCell>
        <mxCell id="m5rwKxlcL4WKNT8dF4GD-47" value="" style="shape=image;verticalLabelPosition=bottom;labelBackgroundColor=default;verticalAlign=top;aspect=fixed;imageAspect=0;image=https://duinaru.github.io/img/uploads/githubactions.png;" vertex="1" parent="1">
          <mxGeometry x="390" y="-366.5" width="80" height="80" as="geometry" />
        </mxCell>
        <mxCell id="m5rwKxlcL4WKNT8dF4GD-48" value="Github Actions&lt;br&gt;Test and Delopy" style="text;html=1;align=center;verticalAlign=middle;whiteSpace=wrap;rounded=0;" vertex="1" parent="1">
          <mxGeometry x="390" y="-276.26" width="110" height="30" as="geometry" />
        </mxCell>
        <mxCell id="m5rwKxlcL4WKNT8dF4GD-49" value="" style="endArrow=classic;html=1;rounded=0;entryX=0.189;entryY=0.978;entryDx=0;entryDy=0;entryPerimeter=0;" edge="1" parent="1" target="m5rwKxlcL4WKNT8dF4GD-20">
          <mxGeometry width="50" height="50" relative="1" as="geometry">
            <mxPoint x="400" y="-380" as="sourcePoint" />
            <mxPoint x="410" y="-450" as="targetPoint" />
          </mxGeometry>
        </mxCell>
        <mxCell id="m5rwKxlcL4WKNT8dF4GD-50" value="Run deploy script" style="text;html=1;align=center;verticalAlign=middle;whiteSpace=wrap;rounded=0;" vertex="1" parent="1">
          <mxGeometry x="300" y="-433.5" width="110" height="30" as="geometry" />
        </mxCell>
        <mxCell id="m5rwKxlcL4WKNT8dF4GD-53" value="" style="curved=1;endArrow=classic;html=1;rounded=0;entryX=1;entryY=0.5;entryDx=0;entryDy=0;" edge="1" parent="1" target="m5rwKxlcL4WKNT8dF4GD-15">
          <mxGeometry width="50" height="50" relative="1" as="geometry">
            <mxPoint x="830" y="-450" as="sourcePoint" />
            <mxPoint x="843" y="-581" as="targetPoint" />
            <Array as="points">
              <mxPoint x="880" y="-450" />
              <mxPoint x="930" y="-550" />
            </Array>
          </mxGeometry>
        </mxCell>
        <mxCell id="m5rwKxlcL4WKNT8dF4GD-54" value="" style="rounded=1;whiteSpace=wrap;html=1;fillColor=none;" vertex="1" parent="1">
          <mxGeometry x="692.85" y="-230" width="150" height="143.5" as="geometry" />
        </mxCell>
        <mxCell id="m5rwKxlcL4WKNT8dF4GD-55" value="" style="image;sketch=0;aspect=fixed;html=1;points=[];align=center;fontSize=12;image=img/lib/mscae/Docker.svg;" vertex="1" parent="1">
          <mxGeometry x="734.78" y="-220" width="52.44" height="43" as="geometry" />
        </mxCell>
        <mxCell id="m5rwKxlcL4WKNT8dF4GD-56" value="" style="shape=image;verticalLabelPosition=bottom;labelBackgroundColor=default;verticalAlign=top;aspect=fixed;imageAspect=0;image=https://upload.wikimedia.org/wikipedia/commons/thumb/a/a7/React-icon.svg/1200px-React-icon.svg.png;" vertex="1" parent="1">
          <mxGeometry x="711.8399999999999" y="-177" width="98.32" height="87.51" as="geometry" />
        </mxCell>
        <mxCell id="m5rwKxlcL4WKNT8dF4GD-62" value="" style="endArrow=classic;html=1;rounded=0;" edge="1" parent="1">
          <mxGeometry width="50" height="50" relative="1" as="geometry">
            <mxPoint x="840" y="-451" as="sourcePoint" />
            <mxPoint x="826" y="-451" as="targetPoint" />
          </mxGeometry>
        </mxCell>
        <mxCell id="m5rwKxlcL4WKNT8dF4GD-65" value="" style="curved=1;endArrow=classic;html=1;rounded=0;entryX=1;entryY=0.75;entryDx=0;entryDy=0;exitX=1;exitY=0.5;exitDx=0;exitDy=0;" edge="1" parent="1" source="m5rwKxlcL4WKNT8dF4GD-54" target="m5rwKxlcL4WKNT8dF4GD-30">
          <mxGeometry width="50" height="50" relative="1" as="geometry">
            <mxPoint x="843" y="-158" as="sourcePoint" />
            <mxPoint x="830" y="-416" as="targetPoint" />
            <Array as="points">
              <mxPoint x="870" y="-160" />
              <mxPoint x="903" y="-170" />
              <mxPoint x="910" y="-370" />
            </Array>
          </mxGeometry>
        </mxCell>
        <mxCell id="m5rwKxlcL4WKNT8dF4GD-74" value="" style="endArrow=classic;html=1;rounded=0;entryX=1;entryY=0.5;entryDx=0;entryDy=0;" edge="1" parent="1" target="m5rwKxlcL4WKNT8dF4GD-54">
          <mxGeometry width="50" height="50" relative="1" as="geometry">
            <mxPoint x="850" y="-160" as="sourcePoint" />
            <mxPoint x="900" y="-210" as="targetPoint" />
          </mxGeometry>
        </mxCell>
        <mxCell id="m5rwKxlcL4WKNT8dF4GD-75" value="&lt;b&gt;proxy&lt;/b&gt;" style="text;html=1;align=center;verticalAlign=middle;whiteSpace=wrap;rounded=0;" vertex="1" parent="1">
          <mxGeometry x="910" y="-306.26" width="60" height="30" as="geometry" />
        </mxCell>
      </root>
    </mxGraphModel>
  </diagram>
</mxfile>
